<svg xmlns="http://www.w3.org/2000/svg" viewBox="0 0 1770 2080" role="img" aria-labelledby="title">
<title id="title">GemSprout logo</title>
<path fill="#35adfe" d="M 1047.14 872.982 L 1223.46 872.994 L 1287.77 872.988 C 1357.06 873.006 1376.09 868.423 1427.54 919.92 L 1586.31 1078.95 L 1630.1 1122.78 C 1657.51 1150.22 1685.59 1175.02 1685.11 1217 C 1684.87 1238.1 1677.13 1256.05 1663.62 1272.47 C 1640.11 1299.12 1612 1325.66 1586.57 1350.84 L 1439.97 1496.38 L 1124.54 1811.53 C 1072.35 1863.62 1020.06 1915.69 967.848 1967.75 C 947.019 1988.52 921.615 2006.66 891.017 2006.2 C 887.398 2006.15 881.77 2006.1 878.301 2005.34 C 877.842 2002.17 873.39 1997.42 871.27 1994.76 C 854.099 1973.28 841.279 1949.67 827.774 1925.75 C 749.819 1784.78 672.808 1643.29 596.747 1501.29 C 582.409 1473.63 567.727 1446.14 552.703 1418.85 C 534.776 1386 517.243 1353.64 502.425 1319.15 C 496.548 1305.47 495.124 1295.91 493.543 1281.52 C 501.583 1283 540.386 1278.81 551.75 1277.89 C 663.696 1268.89 793.361 1237.64 886.733 1174.1 C 977.519 1112.32 1022.17 1037.49 1041.59 930.724 C 1045.24 911.691 1047.09 892.36 1047.14 872.982 z"/>
<path fill="#128ee4" d="M 878.301 2005.34 C 835.701 1997.59 816.171 1977.4 786.507 1948.73 C 769.672 1932.47 752.921 1916.13 736.255 1899.7 L 598.469 1765.05 L 170.605 1345.54 C 154.253 1329.58 138.018 1313.51 121.899 1297.32 C 110.017 1285.42 96.9015 1273.32 87.3741 1259.45 C 68.8185 1232.45 67.8685 1198.33 87.8482 1171.69 C 111.897 1139.62 142.951 1111.15 171.359 1082.71 L 315.174 938.749 C 331.377 922.54 361.96 888.718 382.62 882.465 C 410.787 873.939 460.256 876.717 491.173 876.754 L 583.599 876.801 L 842.634 876.76 C 838.688 895.93 826.468 928.43 818.51 946.831 C 769.66 1059.78 679.886 1167.17 577.792 1236.11 C 568.339 1242.5 539.012 1258.76 532.86 1264.1 C 526.574 1266.39 495.91 1276.45 493.543 1281.52 C 495.124 1295.91 496.548 1305.47 502.425 1319.15 C 517.243 1353.64 534.776 1386 552.703 1418.85 C 567.727 1446.14 582.409 1473.63 596.747 1501.29 C 672.808 1643.29 749.819 1784.78 827.774 1925.75 C 841.279 1949.67 854.099 1973.28 871.27 1994.76 C 873.39 1997.42 877.842 2002.17 878.301 2005.34 z"/>
<path fill="#226a58" d="M 868.819 482.204 C 873.488 431.869 882.57 403.038 905.723 358.933 C 911.14 348.613 910.862 309.819 915.238 296.94 C 938.664 170.847 1071.59 85.4575 1190.69 62.2622 C 1272.06 46.4141 1376.28 46.2886 1458.42 69.4721 C 1457.95 96.8012 1454.88 118.235 1450.99 145.396 C 1438.27 234.196 1405.89 318.082 1340.85 381.836 C 1271.92 449.409 1183.23 483.983 1086.75 481.926 C 1053.18 481.21 1016.25 475.973 984.301 464.778 C 1013.64 390.635 1064.72 332.435 1129.32 286.408 C 1137.6 280.391 1146.16 274.747 1154.95 269.491 C 1164.24 263.986 1173.62 259.487 1182.09 252.799 L 1183.47 251.714 C 1094.2 273.032 1018.14 309.153 967.19 389.223 C 915.789 469.997 939.027 559.925 958.655 646.297 C 1003.29 833.848 977.174 994.439 825.635 1125.14 C 788.705 1157.04 747.79 1184 703.917 1205.37 C 687.721 1213.24 670.724 1220.47 654.091 1227.36 C 615.133 1243.51 573.571 1253.24 532.86 1264.1 C 539.012 1258.76 568.339 1242.5 577.792 1236.11 C 679.886 1167.17 769.66 1059.78 818.51 946.831 C 826.468 928.43 838.688 895.93 842.634 876.76 C 848.933 846.913 858.051 818.364 862.745 788.148 C 870.736 737.063 872.063 684.247 866.278 632.843 C 858.473 563.494 832.848 477.644 754.235 462.152 C 720.255 455.455 686.33 466.079 654.146 476.234 C 708.153 483.428 778.804 489.908 811.894 539.805 C 768.114 602.978 700.952 646.089 625.286 659.589 C 549.851 673.321 467.096 665.874 396.796 634.436 C 401.232 549.098 439.614 469.079 503.393 412.206 C 553.308 367.792 611.516 347.011 678.416 351.033 C 733.964 354.558 785.9 379.781 823.016 421.258 C 839.103 439.47 857.612 460.691 868.819 482.204 z"/>
</svg>
